<svg width="1409" height="1041" viewBox="0 0 1409 1041" fill="none" xmlns="http://www.w3.org/2000/svg">
<g clip-path="url(#clip0_2732_136)">
<path d="M155.89 514L146.14 503.96V466.13L155.89 457H193.72L203.14 466.13V503.96L193.72 514H155.89Z" fill="#D6D7D6"/>
<path d="M889.93 0H591.69L274.14 253.69V355L233.66 396H150.14V298.17L181.14 266.42V254H161.73L0.140015 417.62V588.53L62.14 650.92V524.61L109 486H133.16V460.74L150.49 444H199.11L216.11 460.74V509.36L199.11 527H150.49L133.14 509.36V500H114L76.14 531.15V664.82L266.22 854.77L352.14 769L624.25 1041H723.14V920H850.33L887.14 883V188H996.22L1034.14 150.2V42.2L889.93 0ZM363.26 458H292.14V445H357.94L390.09 413.79L383.54 396H292.14V383H392.66L405.2 417.23L363.26 458Z" fill="#D6D7D6"/>
<path d="M146.24 754H45.58L28.14 735.82V721.66L40.55 711H58.14V698H35.86L15.14 715.54V722.8L0.19 708.04L0 607.57L146.24 754Z" fill="#D6D7D6"/>
<path d="M165.14 303.88V383H228.34L261.14 349.61V136.31L193.14 203.89V274.36L165.14 303.88Z" fill="#D6D7D6"/>
<path d="M1391.18 145H1342.56L1325.14 162.07V181H1233.84L1144.56 91H1018.14V104H1139.14L1228.42 194H1325.12V210.69L1342.56 228H1391.18L1408.18 210.69V162.07L1391.18 145ZM1395.18 205.29L1385.83 215H1348L1338.18 205.29V167.46L1348 158H1385.83L1395.18 167.46V205.29Z" fill="#D6D7D6"/>
<path d="M1310 443L1292.14 459.44V478H1045.74L995.74 528H877.14V541H1001.14L1051.14 491H1292.14V508.06L1310 526H1358.62L1375.14 508.06V459.44L1358.62 443H1310ZM1362.14 502.66L1353.23 513H1315.4L1305.14 502.66V464.83L1315.4 456H1353.23L1362.14 464.83V502.66Z" fill="#D6D7D6"/>
<path d="M1103.37 839L1085.14 854.91V873H965.08L879.41 959H714.14V972H884.82L970.48 886H1085.14V903.53L1103.37 922H1152L1168.15 903.53V854.91L1152 839H1103.37ZM1155.14 898.13L1146.59 909H1108.77L1098.14 898.13V860.31L1108.77 852H1146.59L1155.14 860.31V898.13Z" fill="#D6D7D6"/>
<path d="M1027.06 380H1175.14V397.36L1192.79 415H1241.41L1258.14 397.36V348.74L1241.41 332H1192.79L1175.14 348.74V367H1021.66L941.93 447H877.14V460H947.33L1027.06 380ZM1188.14 354.13L1198.14 345H1236L1245.12 354.13V392L1236 402H1198.17L1188.17 392L1188.14 354.13Z" fill="#D6D7D6"/>
</g>
<defs>
<clipPath id="clip0_2732_136">
<rect width="1408.14" height="1041" fill="white"/>
</clipPath>
</defs>
</svg>
